<svg width="87" height="80" viewBox="0 0 87 80" fill="none" xmlns="http://www.w3.org/2000/svg">
<path d="M85.7873 41.193L70.2359 32.5503C69.6954 32.3565 69.1075 32.3377 68.5557 32.4967C59.7075 36.9655 45.5325 43.9815 42.5653 45.188C39.5265 43.9457 25.432 36.9566 16.6464 32.5235C16.4488 32.4164 16.2276 32.3602 16.0029 32.3602C15.7781 32.3602 15.5569 32.4164 15.3593 32.5235L0.65707 41.2108C0.450176 41.3335 0.28008 41.5095 0.164613 41.7205C0.0491457 41.9314 -0.00744097 42.1696 0.000784449 42.41C0.00900987 42.6503 0.0817444 42.884 0.211364 43.0866C0.340984 43.2892 0.522715 43.4532 0.737508 43.5614C6.77036 46.6002 11.4626 48.9239 15.0823 50.7115V63.9658C15.0816 64.207 15.146 64.4439 15.2687 64.6515C15.3914 64.8592 15.5678 65.0298 15.7794 65.1456L41.0012 78.9988C41.0455 79.184 41.1299 79.3573 41.2483 79.5065C41.3667 79.6556 41.5163 79.7771 41.6867 79.8622C41.857 79.9474 42.044 79.9943 42.2343 79.9995C42.4247 80.0047 42.6139 79.9682 42.7887 79.8926C42.9576 79.9474 43.1359 79.9677 43.3128 79.9522C43.4897 79.9367 43.6617 79.8858 43.8185 79.8024C43.9753 79.7189 44.1138 79.6048 44.2255 79.4668C44.3372 79.3287 44.4201 79.1696 44.469 78.9988L69.798 65.1456C70.0082 65.0306 70.1838 64.8613 70.3064 64.6554C70.429 64.4495 70.4942 64.2144 70.4951 63.9748V51.3907C70.5009 51.3193 70.5009 51.2476 70.4951 51.1762C74.2578 49.3261 79.2182 46.8683 85.7605 43.5703C85.9777 43.4603 86.1609 43.2932 86.2904 43.087C86.4199 42.8807 86.4907 42.6431 86.4953 42.3996C86.4999 42.1561 86.4381 41.9159 86.3165 41.7049C86.1949 41.4939 86.0181 41.32 85.8052 41.2019L85.7873 41.193ZM16.0744 35.2495C30.1153 42.3191 36.6844 45.474 39.8214 46.8683L27.9524 53.8664C25.2711 52.8118 12.9998 46.7164 4.13378 42.2476L16.0744 35.2495ZM17.7635 52.0342C27.2552 56.6549 27.8541 56.6639 28.1132 56.6639C28.3523 56.663 28.5869 56.5982 28.7925 56.4762L40.9923 49.3261V75.9154L17.7635 63.1704V52.0342ZM67.8139 63.1793L43.6825 76.4159V48.7094L57.7055 56.4941C57.9051 56.6049 58.1296 56.6634 58.3579 56.6639C58.6171 56.6639 59.1712 56.6639 67.8139 52.4722V63.1793ZM58.5009 53.8753L45.6487 46.7253C48.9199 45.2417 55.5783 42.0331 69.3243 35.1065L82.2659 42.2565C73.3909 46.7611 61.1018 52.8386 58.5009 53.8753Z" fill="#42196D"/>
<path d="M41.8409 34.9101C42.0923 35.1611 42.433 35.3021 42.7883 35.3021C43.1435 35.3021 43.4843 35.1611 43.7357 34.9101L49.9919 28.6538C50.2288 28.3996 50.3577 28.0635 50.3515 27.7162C50.3454 27.3689 50.2047 27.0375 49.9591 26.7919C49.7135 26.5462 49.3821 26.4055 49.0348 26.3994C48.6875 26.3933 48.3513 26.5222 48.0972 26.759L44.5758 30.2804V3.12811C44.5758 2.77255 44.4345 2.43156 44.1831 2.18014C43.9317 1.92872 43.5907 1.78748 43.2352 1.78748C42.8796 1.78748 42.5386 1.92872 42.2872 2.18014C42.0358 2.43156 41.8945 2.77255 41.8945 3.12811V31.1742L37.4794 26.759C37.2252 26.5222 36.8891 26.3933 36.5418 26.3994C36.1945 26.4055 35.8631 26.5462 35.6175 26.7919C35.3718 27.0375 35.2311 27.3689 35.225 27.7162C35.2189 28.0635 35.3478 28.3996 35.5846 28.6538L41.8409 34.9101Z" fill="#42196D"/>
<path d="M22.1782 27.7601C22.4296 28.0111 22.7703 28.1522 23.1256 28.1522C23.4809 28.1522 23.8216 28.0111 24.073 27.7601L29.0601 22.7729C29.2969 22.5188 29.4259 22.1827 29.4197 21.8353C29.4136 21.488 29.2729 21.1567 29.0273 20.911C28.7816 20.6654 28.4503 20.5247 28.103 20.5186C27.7556 20.5124 27.4195 20.6414 27.1654 20.8782L24.9131 23.1304V2.23443C24.9131 1.87887 24.7719 1.53788 24.5204 1.28646C24.269 1.03504 23.928 0.893799 23.5725 0.893799C23.2169 0.893799 22.8759 1.03504 22.6245 1.28646C22.3731 1.53788 22.2318 1.87887 22.2318 2.23443V24.0242L19.0858 20.8782C18.8317 20.6414 18.4955 20.5124 18.1482 20.5186C17.8009 20.5247 17.4695 20.6654 17.2239 20.911C16.9783 21.1567 16.8376 21.488 16.8314 21.8353C16.8253 22.1827 16.9542 22.5188 17.1911 22.7729L22.1782 27.7601Z" fill="#42196D"/>
<path d="M61.5034 26.8663C61.7548 27.1173 62.0955 27.2584 62.4508 27.2584C62.8061 27.2584 63.1468 27.1173 63.3982 26.8663L68.3853 21.8791C68.6222 21.625 68.7511 21.2889 68.745 20.9415C68.7388 20.5942 68.5981 20.2629 68.3525 20.0172C68.1069 19.7716 67.7755 19.6309 67.4282 19.6248C67.0809 19.6186 66.7447 19.7476 66.4906 19.9844L64.2383 22.2366V1.34063C64.2383 0.985075 64.0971 0.64408 63.8457 0.392662C63.5942 0.141245 63.2532 0 62.8977 0C62.5421 0 62.2011 0.141245 61.9497 0.392662C61.6983 0.64408 61.5571 0.985075 61.5571 1.34063V23.1304L58.411 19.9844C58.1569 19.7476 57.8208 19.6186 57.4734 19.6248C57.1261 19.6309 56.7948 19.7716 56.5491 20.0172C56.3035 20.2629 56.1628 20.5942 56.1567 20.9415C56.1505 21.2889 56.2795 21.625 56.5163 21.8791L61.5034 26.8663Z" fill="#42196D"/>
</svg>
