<svg width="73" height="80" viewBox="0 0 73 80" fill="none" xmlns="http://www.w3.org/2000/svg">
<path d="M20.3307 33.354H11.5228C10.7748 33.354 10.1694 33.9594 10.1694 34.7074V43.5153C10.1694 44.2624 10.7748 44.8687 11.5228 44.8687H20.3307C21.0787 44.8687 21.6841 44.2624 21.6841 43.5153V34.7074C21.6841 33.9603 21.0787 33.354 20.3307 33.354ZM18.9773 42.1619H12.8762V36.0608H18.9773V42.1619Z" fill="#42196D"/>
<path d="M40.8734 33.354H32.0655C31.3175 33.354 30.7121 33.9594 30.7121 34.7074V43.5153C30.7121 44.2624 31.3175 44.8687 32.0655 44.8687H40.8734C41.6205 44.8687 42.2268 44.2624 42.2268 43.5153V34.7074C42.2268 33.9603 41.6205 33.354 40.8734 33.354ZM39.52 42.1619H33.4189V36.0608H39.52V42.1619Z" fill="#42196D"/>
<path d="M60.7827 33.354H51.9749C51.2278 33.354 50.6215 33.9594 50.6215 34.7074V43.5153C50.6215 44.2624 51.2278 44.8687 51.9749 44.8687H60.7827C61.5298 44.8687 62.1361 44.2624 62.1361 43.5153V34.7074C62.1361 33.9603 61.5298 33.354 60.7827 33.354ZM59.4293 42.1619H53.3282V36.0608H59.4293V42.1619Z" fill="#42196D"/>
<path d="M20.3307 53.4166H11.5228C10.7748 53.4166 10.1694 54.0229 10.1694 54.77V63.5779C10.1694 64.325 10.7748 64.9313 11.5228 64.9313H20.3307C21.0787 64.9313 21.6841 64.325 21.6841 63.5779V54.77C21.6841 54.0229 21.0787 53.4166 20.3307 53.4166ZM18.9773 62.2245H12.8762V56.1234H18.9773V62.2245Z" fill="#42196D"/>
<path d="M40.8734 53.4166H32.0655C31.3175 53.4166 30.7121 54.0229 30.7121 54.77V63.5779C30.7121 64.325 31.3175 64.9313 32.0655 64.9313H40.8734C41.6205 64.9313 42.2268 64.325 42.2268 63.5779V54.77C42.2268 54.0229 41.6205 53.4166 40.8734 53.4166ZM39.52 62.2245H33.4189V56.1234H39.52V62.2245Z" fill="#42196D"/>
<path d="M60.7827 53.4166H51.9749C51.2278 53.4166 50.6215 54.0229 50.6215 54.77V63.5779C50.6215 64.325 51.2278 64.9313 51.9749 64.9313H60.7827C61.5298 64.9313 62.1361 64.325 62.1361 63.5779V54.77C62.1361 54.0229 61.5298 53.4166 60.7827 53.4166ZM59.4293 62.2245H53.3282V56.1234H59.4293V62.2245Z" fill="#42196D"/>
<path d="M71.5016 7.14592H62.5629C62.5512 7.14592 62.5412 7.14862 62.5295 7.14953V5.34681C62.5295 2.39821 60.1313 0 57.1827 0C54.2341 0 51.8359 2.39912 51.8359 5.34681V7.14592H41.7639V5.34681C41.7639 2.39821 39.3657 0 36.4171 0C33.4685 0 31.0703 2.39912 31.0703 5.34681V7.14592H20.9975V5.34681C20.9975 2.39821 18.5992 0 15.6506 0C12.7021 0 10.3038 2.39912 10.3038 5.34681V7.14682C10.2993 7.14682 10.2948 7.14592 10.2903 7.14592H1.35339C0.605418 7.14592 0 7.75134 0 8.49931V78.6466C0 79.3937 0.605418 80 1.35339 80H71.5016C72.2487 80 72.855 79.3937 72.855 78.6466V8.49931C72.855 7.75134 72.2487 7.14592 71.5016 7.14592ZM54.5427 5.34681C54.5427 3.89056 55.7264 2.70679 57.1827 2.70679C58.6389 2.70679 59.8227 3.89056 59.8227 5.34681V12.8148C59.8227 14.2702 58.6389 15.4549 57.1827 15.4549C55.7264 15.4549 54.5427 14.2711 54.5427 12.8148V5.34681ZM36.4171 2.70679C37.8725 2.70679 39.0571 3.89056 39.0571 5.34681V12.8148C39.0571 14.2702 37.8734 15.4549 36.4171 15.4549C34.9609 15.4549 33.7771 14.2711 33.7771 12.8148V8.62563C33.7807 8.58322 33.7897 8.54262 33.7897 8.49841C33.7897 8.4542 33.7807 8.4136 33.7771 8.37119V5.34681C33.7771 3.89056 34.9609 2.70679 36.4171 2.70679ZM13.0106 5.34681C13.0106 3.89056 14.1944 2.70679 15.6506 2.70679C17.106 2.70679 18.2907 3.89056 18.2907 5.34681V12.8148C18.2907 14.2702 17.1069 15.4549 15.6506 15.4549C14.1944 15.4549 13.0106 14.2711 13.0106 12.8148V5.34681ZM70.1482 77.2932H2.70679V9.8527H10.2903C10.2948 9.8527 10.2993 9.8518 10.3038 9.8518V12.8157C10.3038 15.7643 12.703 18.1625 15.6506 18.1625C18.5983 18.1625 20.9975 15.7643 20.9975 12.8157V9.85361H31.0703V12.8157C31.0703 15.7643 33.4694 18.1625 36.4171 18.1625C39.3648 18.1625 41.7639 15.7643 41.7639 12.8157V9.85361H51.8359V12.8157C51.8359 15.7643 54.2341 18.1625 57.1827 18.1625C60.1313 18.1625 62.5295 15.7643 62.5295 12.8157V9.8491C62.5412 9.8491 62.5512 9.8527 62.5629 9.8527H70.1482V77.2932Z" fill="#42196D"/>
</svg>
