<svg width="75" height="80" viewBox="0 0 75 80" fill="none" xmlns="http://www.w3.org/2000/svg">
<path d="M73.9871 24.2022L38.015 0.220752C37.5735 -0.0735842 36.9988 -0.0735842 36.5573 0.220752L0.585169 24.2022C0.219877 24.4457 0 24.8566 0 25.2954C0 25.7343 0.219001 26.1452 0.585169 26.3887L6.04879 30.0311V49.2269C6.04879 49.6746 6.27655 50.0915 6.65323 50.3333L36.7868 69.6518C37.0032 69.7902 37.2494 69.8594 37.4964 69.8594C37.7548 69.8594 38.0141 69.7832 38.2366 69.6308L53.9582 58.905V66.3843L48.1013 78.0982C47.898 78.5055 47.9199 78.99 48.1582 79.3772C48.3974 79.7635 48.8213 80 49.276 80H61.2676C61.7231 80 62.1462 79.7635 62.3854 79.3772C62.6236 78.99 62.6464 78.5055 62.4423 78.0982L56.5853 66.3843V57.1118L66.5516 50.3123C66.9099 50.0679 67.1245 49.6614 67.1245 49.2269V30.9632L73.9863 26.3887C74.3515 26.1452 74.5714 25.7343 74.5714 25.2954C74.5714 24.8566 74.3524 24.4457 73.9871 24.2022ZM51.4029 77.372L55.2722 69.6334L59.1415 77.372H51.4029ZM37.4736 66.9703L8.6768 48.5086V31.7831L36.5573 50.371C36.7781 50.5182 37.0321 50.5917 37.2861 50.5917C37.5402 50.5917 37.7942 50.5182 38.015 50.371L53.9582 39.7416V55.7234L37.4736 66.9703ZM64.4974 48.5331L56.5862 53.9311V37.9896L64.4974 32.7152V48.5331ZM65.355 28.9852C65.1614 29.057 64.9906 29.1717 64.8522 29.3207L55.2722 35.7076L38.015 24.2022C37.4097 23.7992 36.595 23.963 36.1929 24.5666C35.7908 25.1702 35.9538 25.9866 36.5573 26.3887L52.9035 37.2861L37.2861 47.6983L3.68271 25.2954L37.2861 2.89343L70.8896 25.2954L65.355 28.9852Z" fill="#42196D"/>
</svg>
