<svg width="68" height="80" viewBox="0 0 68 80" fill="none" xmlns="http://www.w3.org/2000/svg">
<path d="M66.3829 76.9495H60.5329C60.048 73.0776 58.3779 62.0119 54.501 55.3955C50.6027 48.7364 44.341 42.6637 41.6523 40.2099C44.3227 37.6778 50.5976 31.3877 54.501 24.7194C58.4155 18.0379 60.0816 6.81465 60.5481 3.04952H66.3839C67.2256 3.04952 67.9087 2.36642 67.9087 1.52476C67.9087 0.682075 67.2256 0 66.3839 0H1.52476C0.683092 0 0 0.682075 0 1.52476C0 2.36642 0.683092 3.04952 1.52476 3.04952H7.36458C7.83116 6.81567 9.49314 18.0389 13.4067 24.7194C17.3172 31.3978 23.34 37.6991 25.868 40.2109C23.3227 42.6455 17.3121 48.7282 13.4077 55.3955C9.53075 62.0119 7.8647 73.0786 7.37983 76.9505H1.52577C0.684108 76.9505 0.00101595 77.6336 0.00101595 78.4752C0.00101595 79.3179 0.684108 80 1.52577 80H8.7389C8.73991 80 8.74093 80 8.74093 80C8.74093 80 8.74093 80 8.74195 80H66.3839C67.2256 80 67.9087 79.3179 67.9087 78.4752C67.9076 77.6326 67.2246 76.9495 66.3829 76.9495ZM16.0374 56.9365C20.7479 48.8949 29.0131 41.4429 29.0965 41.3687C29.4146 41.0831 29.5986 40.6775 29.6037 40.2495C29.6088 39.8216 29.4329 39.412 29.1208 39.1202C29.0375 39.0419 20.7631 31.2494 16.0374 23.1773C12.5701 17.2582 10.9528 6.94985 10.4426 3.0485H57.4702C56.9599 6.94781 55.3416 17.2521 51.8692 23.1773C47.1618 31.2209 38.4564 39.0155 38.369 39.0928C38.0397 39.3865 37.8526 39.8084 37.8577 40.2485C37.8628 40.6897 38.058 41.1075 38.3944 41.3931C38.4808 41.4673 47.1709 48.9112 51.8702 56.9355C55.304 62.7977 56.9263 72.9627 57.4539 76.9485H10.4568C10.9823 72.9658 12.5996 62.8048 16.0374 56.9365Z" fill="#42196D"/>
<path d="M35.4791 58.4317V35.0196L49.4327 19.3725C49.8332 18.9242 49.9318 18.2828 49.6868 17.7339C49.4408 17.185 48.8959 16.8323 48.2952 16.8323H19.6145C19.0137 16.8323 18.4689 17.185 18.2229 17.7339C17.9779 18.2828 18.0765 18.9232 18.477 19.3725L32.4306 35.0196V58.4317L18.3927 69.3765C17.8783 69.777 17.676 70.458 17.8874 71.074C18.0999 71.689 18.6783 72.1027 19.3299 72.1027H48.5798C49.2314 72.1027 49.8098 71.689 50.0222 71.074C50.2337 70.458 50.0314 69.7759 49.517 69.3765L35.4791 58.4317ZM44.8909 19.8828L33.9533 32.148L23.0157 19.8828H44.8909ZM23.7639 69.0542L33.9533 61.1102L44.1428 69.0542H23.7639Z" fill="#42196D"/>
</svg>
