<svg width="75" height="80" viewBox="0 0 75 80" fill="none" xmlns="http://www.w3.org/2000/svg">
<path d="M60.1124 13.0838C55.7646 9.19371 50.1551 7.22932 44.3421 7.55258C38.519 7.87583 33.1701 10.4471 29.2809 14.7922C21.2521 23.764 22.0192 37.5958 30.9911 45.6246C35.152 49.3471 40.3544 51.1779 45.5412 51.1779C51.5412 51.1779 57.5172 48.7264 61.8236 43.9144C69.8515 34.9444 69.0843 21.1126 60.1124 13.0838ZM59.7634 42.0734C52.7522 49.9098 40.6703 50.5802 32.833 43.5654C24.9957 36.5523 24.3262 24.4713 31.3383 16.635C34.7357 12.8388 39.4086 10.5926 44.4941 10.3108C44.856 10.2915 45.2152 10.2813 45.5743 10.2813C50.2703 10.2813 54.7424 11.986 58.2696 15.1421C66.1069 22.1561 66.7764 34.2371 59.7634 42.0734Z" fill="#42196D"/>
<path d="M33.7926 18.7901C33.2833 19.3592 33.3322 20.2323 33.9004 20.7406C34.1647 20.9764 34.4935 21.0924 34.8213 21.0924C35.2008 21.0924 35.5783 20.9377 35.8509 20.6319C40.662 15.2564 48.9468 14.7977 54.3224 19.6069C54.8907 20.1162 55.7628 20.0674 56.273 19.4992C56.7814 18.93 56.7326 18.057 56.1643 17.5486C49.6532 11.7227 39.6176 12.2808 33.7926 18.7901Z" fill="#42196D"/>
<path d="M74.9269 27.575C74.4581 19.7543 70.9723 12.5856 65.1114 7.38684C59.2505 2.18808 51.7226 -0.408994 43.8946 0.0524017C36.0748 0.521165 28.9052 4.00696 23.7074 9.86788C13.2868 21.6164 14.0365 39.469 25.1671 50.3187L20.403 55.7542L18.8751 54.3995C18.3051 53.8929 17.4357 53.9445 16.9292 54.5118L0.352085 73.0367C0.107113 73.3093 -0.0181362 73.6685 0.00212463 74.0341C0.0223855 74.3997 0.187236 74.7432 0.459837 74.9873L5.6678 79.6482C5.93212 79.884 6.2609 80 6.58875 80C6.96818 80 7.34577 79.8444 7.61837 79.5395L24.2176 60.9907C24.4625 60.7172 24.5887 60.3571 24.5675 59.9896C24.5463 59.624 24.3797 59.2796 24.1052 59.0364L22.4705 57.5869L27.2318 52.1551C32.4656 56.3887 38.891 58.6607 45.6103 58.6607C46.2061 58.6607 46.8057 58.6423 47.4052 58.6064C55.225 58.1367 62.3946 54.6509 67.5933 48.79C72.7921 42.929 75.3956 35.3957 74.9269 27.575ZM6.481 76.668L3.33228 73.8499L18.0711 57.3797L21.2337 60.1839L6.481 76.668ZM65.5258 46.9573C60.817 52.2665 54.3225 55.4236 47.2394 55.8481C40.1574 56.2846 33.3313 53.9132 28.022 49.2053C17.0627 39.4847 16.0543 22.6599 25.7749 11.7006C30.4837 6.3913 36.9782 3.23428 44.0613 2.80972C44.6046 2.77657 45.1461 2.76091 45.6867 2.76091C52.1831 2.76091 58.3774 5.10565 63.2796 9.45345C68.5889 14.1623 71.7459 20.6568 72.1705 27.7398C72.5941 34.8238 70.2337 41.6489 65.5258 46.9573Z" fill="#42196D"/>
</svg>
