<svg width="86" height="80" viewBox="0 0 86 80" fill="none" xmlns="http://www.w3.org/2000/svg">
<path d="M9.41052 61.7908C9.41052 67.0877 13.72 71.3982 19.0179 71.3982C24.3158 71.3982 28.6253 67.0877 28.6253 61.7908C28.6253 56.494 24.3158 52.1835 19.0179 52.1835C13.72 52.1835 9.41052 56.4929 9.41052 61.7908ZM25.4674 61.7908C25.4674 65.3466 22.5737 68.2403 19.0179 68.2403C15.4621 68.2403 12.5684 65.3466 12.5684 61.7908C12.5684 58.2351 15.4621 55.3414 19.0179 55.3414C22.5737 55.3414 25.4674 58.2351 25.4674 61.7908Z" fill="#320C5A"/>
<path d="M85.1989 25.913C84.5484 25.333 83.5515 25.3888 82.9694 26.0393L60.0358 51.7267L48.2294 39.9204C47.6126 39.3035 46.6137 39.3035 45.9968 39.9204C45.38 40.5372 45.38 41.5362 45.9968 42.153L58.9852 55.1404C59.2821 55.4372 59.6831 55.6025 60.1021 55.6025C60.1168 55.6025 60.1315 55.6025 60.1463 55.6014C60.58 55.5888 60.9905 55.3993 61.28 55.0751L85.3263 28.1414C85.9063 27.492 85.8494 26.493 85.1989 25.913Z" fill="#320C5A"/>
<path d="M60.6463 59.5505C59.7737 59.5505 59.0674 60.2579 59.0674 61.1295V76.8421H3.15789V3.15789H59.0674V36.2389C59.0674 37.1105 59.7737 37.8179 60.6463 37.8179C61.5189 37.8179 62.2253 37.1105 62.2253 36.2389V1.57895C62.2253 0.707368 61.5189 0 60.6463 0H1.57895C0.706316 0 0 0.707368 0 1.57895V78.4211C0 79.2926 0.706316 80 1.57895 80H60.6463C61.5189 80 62.2253 79.2926 62.2253 78.4211V61.1295C62.2253 60.2579 61.5189 59.5505 60.6463 59.5505Z" fill="#320C5A"/>
<path d="M42.1896 21.2892C43.0622 21.2892 43.7686 20.5819 43.7686 19.7103C43.7686 18.8387 43.0622 18.1313 42.1896 18.1313H10.4675C9.59487 18.1313 8.88855 18.8387 8.88855 19.7103C8.88855 20.5819 9.59487 21.2892 10.4675 21.2892H42.1896Z" fill="#320C5A"/>
<path d="M44.1569 33.7568C44.1569 32.8852 43.4505 32.1779 42.5779 32.1779H10.8642C9.99159 32.1779 9.28528 32.8852 9.28528 33.7568C9.28528 34.6284 9.99159 35.3358 10.8642 35.3358H42.5779C43.4505 35.3358 44.1569 34.6284 44.1569 33.7568Z" fill="#320C5A"/>
</svg>
