<svg width="69" height="67" viewBox="0 0 69 67" fill="none" xmlns="http://www.w3.org/2000/svg">
<path d="M68.5 33.5C68.5 37.8315 67.6214 42.121 65.9139 46.1237C64.2065 50.1264 61.7034 53.7643 58.5469 56.8294C55.3903 59.8944 51.6421 62.3265 47.516 63.9861C43.3898 65.6457 38.967 66.5 34.5 66.5C30.033 66.5 25.6102 65.6457 21.484 63.9861C17.3579 62.3265 13.6097 59.8944 10.4531 56.8294C7.29661 53.7643 4.79352 50.1264 3.08606 46.1237C1.37861 42.121 0.5 37.8315 0.5 33.5C0.5 29.1685 1.37861 24.879 3.08606 20.8763C4.79353 16.8736 7.29661 13.2357 10.4531 10.1706C13.6097 7.10557 17.3579 4.67348 21.484 3.01392C25.6102 1.35434 30.0331 0.499999 34.5 0.5C38.967 0.500001 43.3898 1.35435 47.516 3.01392C51.6421 4.67349 55.3903 7.10558 58.5469 10.1706C61.7034 13.2357 64.2065 16.8736 65.9139 20.8763C67.6214 24.879 68.5 29.1685 68.5 33.5L68.5 33.5Z" stroke="white"/>
<mask id="path-2-inside-1" fill="white">
<path d="M61.7369 33.5001C61.7369 39.4054 59.7015 45.1408 55.9551 49.7925C52.2086 54.4443 46.9666 57.7447 41.0643 59.1679C35.162 60.5911 28.939 60.0553 23.3867 57.6458C17.8344 55.2363 13.2723 51.0917 10.4273 45.8724C7.58228 40.6531 6.61803 34.6594 7.68817 28.8463C8.75832 23.0331 11.8013 17.735 16.3322 13.796C20.8632 9.85698 26.6215 7.50375 32.6896 7.11122C38.7577 6.7187 44.7866 8.30947 49.8156 11.6301L49.227 12.4705C44.3912 9.27754 38.5941 7.74791 32.7592 8.12535C26.9242 8.50279 21.3873 10.7656 17.0304 14.5532C12.6736 18.3409 9.74757 23.4354 8.71856 29.0251C7.68954 34.6149 8.61673 40.3782 11.3524 45.3969C14.0881 50.4156 18.4749 54.4009 23.8138 56.7178C29.1527 59.0348 35.1366 59.55 40.8121 58.1815C46.4875 56.8129 51.5281 53.6394 55.1305 49.1664C58.733 44.6935 60.6902 39.1785 60.6902 33.5001H61.7369Z"/>
</mask>
<path d="M61.7369 33.5001C61.7369 39.4054 59.7015 45.1408 55.9551 49.7925C52.2086 54.4443 46.9666 57.7447 41.0643 59.1679C35.162 60.5911 28.939 60.0553 23.3867 57.6458C17.8344 55.2363 13.2723 51.0917 10.4273 45.8724C7.58228 40.6531 6.61803 34.6594 7.68817 28.8463C8.75832 23.0331 11.8013 17.735 16.3322 13.796C20.8632 9.85698 26.6215 7.50375 32.6896 7.11122C38.7577 6.7187 44.7866 8.30947 49.8156 11.6301L49.227 12.4705C44.3912 9.27754 38.5941 7.74791 32.7592 8.12535C26.9242 8.50279 21.3873 10.7656 17.0304 14.5532C12.6736 18.3409 9.74757 23.4354 8.71856 29.0251C7.68954 34.6149 8.61673 40.3782 11.3524 45.3969C14.0881 50.4156 18.4749 54.4009 23.8138 56.7178C29.1527 59.0348 35.1366 59.55 40.8121 58.1815C46.4875 56.8129 51.5281 53.6394 55.1305 49.1664C58.733 44.6935 60.6902 39.1785 60.6902 33.5001H61.7369Z" stroke="white" stroke-width="2" mask="url(#path-2-inside-1)"/>
<path d="M37.2682 23.8182H33.6549L29.1538 26.668V30.0771L33.3175 27.467H33.4241V42H37.2682V23.8182Z" fill="white"/>
</svg>
