<svg width="70" height="67" viewBox="0 0 70 67" fill="none" xmlns="http://www.w3.org/2000/svg">
<path d="M69.2772 33.5C69.2772 37.8318 68.401 42.1214 66.6984 46.1242C64.9958 50.127 62.4998 53.7649 59.3524 56.8299C56.2049 59.8948 52.4676 62.3268 48.3536 63.9863C44.2395 65.6457 39.8295 66.5 35.3757 66.5C30.9219 66.5 26.512 65.6457 22.3979 63.9863C18.2838 62.3268 14.5465 59.8948 11.3991 56.8299C8.25164 53.7649 5.75569 50.127 4.05306 46.1242C2.35045 42.1214 1.4743 37.8317 1.4743 33.5C1.4743 29.1682 2.35045 24.8786 4.05306 20.8758C5.75569 16.873 8.25165 13.2351 11.3991 10.1701C14.5465 7.10515 18.2838 4.67319 22.3979 3.01373C26.512 1.35427 30.9219 0.499999 35.3757 0.5C39.8296 0.500001 44.2395 1.35427 48.3536 3.01374C52.4676 4.67319 56.2049 7.10515 59.3524 10.1701C62.4998 13.2351 64.9958 16.873 66.6984 20.8758C68.401 24.8786 69.2772 29.1683 69.2772 33.5L69.2772 33.5Z" stroke="white"/>
<mask id="path-2-inside-1" fill="white">
<path d="M62.5348 33.5001C62.5348 39.4054 60.5052 45.1408 56.7695 49.7925C53.0338 54.4443 47.8068 57.7447 41.9213 59.1679C36.0359 60.5911 29.8306 60.0553 24.2942 57.6458C18.7577 55.2363 14.2087 51.0917 11.3718 45.8724C8.53492 40.6531 7.57343 34.6594 8.64051 28.8463C9.7076 23.0331 12.7419 17.735 17.2599 13.796C21.7779 9.85698 27.5197 7.50375 33.5705 7.11122C39.6213 6.7187 45.6329 8.30947 50.6475 11.6301L50.0606 12.4705C45.2387 9.27754 39.4581 7.74791 33.6399 8.12535C27.8216 8.50279 22.3005 10.7656 17.9561 14.5532C13.6117 18.3409 10.694 23.4354 9.66795 29.0251C8.64187 34.6149 9.56642 40.3783 12.2943 45.3969C15.0221 50.4156 19.3964 54.4009 24.72 56.7178C30.0437 59.0348 36.0105 59.55 41.6698 58.1815C47.329 56.8129 52.3552 53.6394 55.9473 49.1664C59.5395 44.6935 61.4911 39.1785 61.4911 33.5001H62.5348Z"/>
</mask>
<path d="M62.5348 33.5001C62.5348 39.4054 60.5052 45.1408 56.7695 49.7925C53.0338 54.4443 47.8068 57.7447 41.9213 59.1679C36.0359 60.5911 29.8306 60.0553 24.2942 57.6458C18.7577 55.2363 14.2087 51.0917 11.3718 45.8724C8.53492 40.6531 7.57343 34.6594 8.64051 28.8463C9.7076 23.0331 12.7419 17.735 17.2599 13.796C21.7779 9.85698 27.5197 7.50375 33.5705 7.11122C39.6213 6.7187 45.6329 8.30947 50.6475 11.6301L50.0606 12.4705C45.2387 9.27754 39.4581 7.74791 33.6399 8.12535C27.8216 8.50279 22.3005 10.7656 17.9561 14.5532C13.6117 18.3409 10.694 23.4354 9.66795 29.0251C8.64187 34.6149 9.56642 40.3783 12.2943 45.3969C15.0221 50.4156 19.3964 54.4009 24.72 56.7178C30.0437 59.0348 36.0105 59.55 41.6698 58.1815C47.329 56.8129 52.3552 53.6394 55.9473 49.1664C59.5395 44.6935 61.4911 39.1785 61.4911 33.5001H62.5348Z" stroke="white" stroke-width="2" mask="url(#path-2-inside-1)"/>
<path d="M34.8302 42.2486C38.914 42.2486 41.8349 40.0025 41.826 36.8952C41.8349 34.6314 40.3966 33.0156 37.7244 32.6783V32.5362C39.7574 32.1722 41.1601 30.734 41.1513 28.6921C41.1601 25.8246 38.6477 23.5696 34.8835 23.5696C31.1548 23.5696 28.3494 25.7536 28.2961 28.8963H31.9804C32.0248 27.5114 33.2944 26.6147 34.8657 26.6147C36.4194 26.6147 37.4581 27.5558 37.4492 28.9229C37.4581 30.3523 36.2418 31.32 34.4929 31.32H32.7972V34.1431H34.4929C36.5525 34.1431 37.8398 35.1729 37.8309 36.6378C37.8398 38.0849 36.5969 39.0792 34.8391 39.0792C33.1434 39.0792 31.8739 38.1914 31.8029 36.8597H27.9322C27.9943 40.038 30.8352 42.2486 34.8302 42.2486Z" fill="white"/>
</svg>
