<svg width="89" height="80" viewBox="0 0 89 80" fill="none" xmlns="http://www.w3.org/2000/svg">
<path d="M86.8796 59.1784H70.2093V46.3525H86.6263C87.4965 46.3525 88.2027 45.6463 88.2027 44.7761V27.1084C88.2027 26.2372 87.4965 25.532 86.6263 25.532H70.3701V10.4108C70.3701 9.53955 69.6638 8.83436 68.7936 8.83436H27.368V1.57644C27.368 0.705193 26.6628 0 25.7916 0H1.57644C0.705193 0 0 0.705193 0 1.57644V19.2451C0 20.1164 0.705193 20.8216 1.57644 20.8216H12.107V31.0537L12.4349 48.6919V58.8946H1.90539C1.03414 58.8946 0.32895 59.6009 0.32895 60.4711V78.1398C0.32895 79.01 1.03414 79.7162 1.90539 79.7162H26.1205C26.9918 79.7162 27.697 79.01 27.697 78.1398V60.4711C27.697 59.6009 26.9918 58.8946 26.1205 58.8946H15.5889V48.6625L15.261 31.0243V20.8216H25.7926C26.6639 20.8216 27.3691 20.1164 27.3691 19.2451V11.9872H67.2182V25.532H39.8744C39.0032 25.532 38.298 26.2372 38.298 27.1084V44.7761C38.298 45.6463 39.0032 46.3525 39.8744 46.3525H67.0564V59.1784H39.6485C38.7772 59.1784 38.072 59.8847 38.072 60.7548V78.4236C38.072 79.2938 38.7772 80 39.6485 80H86.8796C87.7498 80 88.456 79.2938 88.456 78.4236V60.7548C88.456 59.8847 87.7498 59.1784 86.8796 59.1784ZM24.5441 76.5634H3.48182V62.0475H24.5441V76.5634ZM24.2151 17.6687H3.15287V3.15287H24.2151V17.6687ZM41.4508 28.6849H85.0499V43.1996H41.4508V28.6849ZM85.3031 76.8471H41.2249V62.3313H85.3031V76.8471Z" fill="#42196D"/>
</svg>
