<svg width="85" height="55" viewBox="0 0 85 55" fill="none" xmlns="http://www.w3.org/2000/svg">
<path d="M79.273 0H5.221C2.342 0 0 2.095 0 4.67V50.122C0 52.697 2.342 54.793 5.221 54.793H79.273C82.152 54.793 84.494 52.697 84.494 50.122V4.67C84.494 2.095 82.152 0 79.273 0ZM81.494 50.122C81.494 51.027 80.477 51.793 79.273 51.793H5.221C4.017 51.793 3 51.027 3 50.122V4.67C3 3.765 4.017 3 5.221 3H79.273C80.477 3 81.494 3.765 81.494 4.67V50.122Z" fill="#42196D"/>
<path d="M42.246 7.37402C31.206 7.37402 22.224 16.356 22.224 27.396C22.224 38.436 31.206 47.418 42.246 47.418C53.286 47.418 62.268 38.436 62.268 27.396C62.268 16.356 53.286 7.37402 42.246 7.37402ZM42.246 44.418C32.86 44.418 25.224 36.781 25.224 27.396C25.224 18.011 32.86 10.374 42.246 10.374C51.632 10.374 59.268 18.01 59.268 27.396C59.268 36.782 51.632 44.418 42.246 44.418Z" fill="#42196D"/>
<path d="M51.103 26.127L39.341 18.718C38.88 18.426 38.295 18.409 37.817 18.674C37.338 18.938 37.042 19.441 37.042 19.987V34.805C37.042 35.351 37.339 35.854 37.817 36.118C38.043 36.243 38.292 36.305 38.542 36.305C38.82 36.305 39.098 36.228 39.341 36.075L51.103 28.665C51.539 28.391 51.803 27.911 51.803 27.396C51.803 26.881 51.539 26.401 51.103 26.127ZM40.042 32.087V22.704L47.489 27.395L40.042 32.087Z" fill="#42196D"/>
</svg>
